<?xml version="1.0" standalone="no"?>
<!DOCTYPE svg PUBLIC "-//W3C//DTD SVG 20010904//EN"
 "http://www.w3.org/TR/2001/REC-SVG-20010904/DTD/svg10.dtd">
<svg version="1.0" xmlns="http://www.w3.org/2000/svg"
 width="1024.000000pt" height="297.000000pt" viewBox="0 0 1024.000000 297.000000"
 preserveAspectRatio="xMidYMid meet">

<g transform="translate(0.000000,297.000000) scale(0.100000,-0.100000)"
fill="#000000" stroke="none">
<path d="M197 2303 c-4 -3 -7 -277 -7 -609 0 -540 2 -602 16 -608 9 -3 179 -6
378 -6 268 0 365 3 374 12 17 17 16 192 -1 207 -9 7 -101 12 -268 13 l-254 3
-3 129 c-2 83 1 133 8 140 7 7 99 13 253 16 l242 5 3 94 c2 57 -1 98 -8 105
-9 9 -98 12 -422 15 l-78 1 0 128 c0 86 4 132 12 140 9 9 82 12 265 12 l253 0
5 23 c3 12 5 58 3 102 l-3 80 -381 3 c-209 1 -383 -1 -387 -5z"/>
<path d="M2028 2304 c-17 -5 -18 -34 -19 -417 -1 -227 -2 -500 -3 -607 l-1
-195 92 -3 c144 -4 133 -29 133 289 0 292 1 298 57 351 52 50 134 63 199 32
66 -31 68 -45 74 -374 l5 -295 94 -3 c60 -2 98 1 107 9 11 9 14 68 14 318 0
345 -8 403 -69 479 -51 65 -107 87 -226 87 -91 0 -104 -2 -147 -27 -25 -16
-60 -45 -77 -65 l-31 -38 0 228 0 227 -27 0 c-16 0 -57 2 -93 5 -36 2 -73 2
-82 -1z"/>
<path d="M4230 2289 c-7 -12 -31 -76 -55 -143 -24 -66 -55 -152 -70 -191 -15
-38 -42 -113 -60 -165 -35 -101 -164 -456 -220 -605 -18 -49 -31 -93 -29 -97
9 -14 240 -9 251 5 6 6 27 63 48 125 21 62 44 117 50 122 8 7 94 9 231 8 l219
-3 40 -120 c23 -66 44 -126 49 -133 9 -14 223 -17 246 -3 12 8 -9 74 -122 388
-75 208 -174 479 -220 603 l-83 225 -132 3 c-126 2 -133 2 -143 -19z m214
-493 c36 -112 66 -211 66 -220 0 -14 -19 -16 -145 -16 l-145 0 6 28 c5 23 100
318 127 394 5 15 13 25 18 23 4 -3 37 -97 73 -209z"/>
<path d="M1400 1980 c-162 -34 -296 -172 -331 -339 -16 -80 -7 -224 20 -293
109 -283 446 -373 685 -185 51 41 118 144 114 177 -3 22 -11 27 -68 42 -106
27 -121 24 -151 -26 -51 -83 -163 -110 -258 -61 -27 13 -58 36 -70 50 -32 41
-61 131 -61 188 0 92 71 209 143 236 99 38 247 -21 247 -97 0 -32 17 -35 122
-26 86 8 93 11 96 31 5 35 -54 143 -110 200 -70 71 -143 103 -250 108 -46 2
-103 0 -128 -5z"/>
<path d="M3253 1976 c-119 -29 -227 -106 -287 -205 -61 -100 -78 -209 -55
-350 46 -286 372 -440 644 -303 68 34 166 131 197 195 49 99 59 199 33 322
-20 95 -59 168 -120 223 -121 111 -268 153 -412 118z m205 -225 c50 -26 76
-58 98 -123 20 -63 14 -178 -14 -242 -48 -107 -184 -148 -300 -90 -43 21 -56
34 -79 82 -24 48 -28 70 -28 137 0 96 21 158 69 204 63 61 170 75 254 32z"/>
<path d="M5440 1977 c-30 -7 -65 -18 -76 -25 -21 -11 -69 -63 -91 -98 -10 -16
-12 -9 -12 43 -1 34 -5 63 -11 65 -5 2 -56 1 -112 -2 l-103 -5 0 -435 0 -435
90 -3 c149 -5 134 -40 137 303 l3 294 39 40 c78 80 216 74 263 -12 16 -28 19
-70 23 -327 l5 -295 102 0 c56 0 104 2 107 5 3 3 6 148 7 321 1 294 -1 320
-20 386 -18 59 -29 78 -70 116 -68 64 -174 88 -281 64z"/>
<path d="M6170 1975 c-125 -36 -194 -114 -207 -234 -5 -52 -2 -67 21 -115 40
-82 109 -126 288 -185 121 -40 162 -66 166 -107 8 -77 -124 -122 -222 -75 -30
15 -49 33 -61 58 l-17 36 -92 -7 c-50 -4 -95 -11 -100 -16 -15 -15 15 -100 54
-149 42 -52 110 -93 189 -111 59 -14 191 -9 253 10 48 14 114 64 154 118 66
85 66 225 1 298 -38 45 -150 100 -295 149 -82 27 -117 43 -128 60 -34 52 18
105 103 105 69 0 116 -22 143 -67 16 -28 25 -34 43 -29 12 3 50 6 84 6 81 0
92 16 59 86 -30 61 -96 127 -159 154 -65 29 -201 36 -277 15z"/>
<path d="M8270 1972 c-173 -45 -280 -170 -302 -354 -22 -175 16 -319 108 -419
57 -60 113 -94 195 -120 74 -23 126 -24 226 -3 95 19 151 45 199 92 41 39 91
139 78 152 -5 5 -44 17 -86 26 l-78 17 -49 -46 c-55 -51 -92 -63 -176 -54
-100 10 -166 63 -181 146 -4 21 -2 36 5 41 7 4 134 10 283 14 149 3 274 9 279
12 13 8 10 150 -5 219 -24 114 -77 185 -177 239 -103 57 -202 68 -319 38z
m181 -183 c63 -21 109 -82 109 -144 l0 -25 -185 0 -185 0 6 28 c30 121 136
180 255 141z"/>
<path d="M9710 1980 c-66 -14 -147 -57 -175 -94 -53 -70 -70 -180 -39 -254 34
-82 99 -126 269 -182 157 -51 196 -80 187 -136 -7 -44 -48 -68 -120 -72 -84
-4 -129 17 -155 71 -18 36 -20 37 -71 37 -29 0 -74 -3 -100 -6 -43 -6 -46 -9
-46 -36 0 -58 79 -166 150 -203 94 -49 281 -58 374 -16 64 28 142 104 162 157
31 82 21 177 -25 241 -36 50 -149 109 -287 152 -154 47 -190 89 -123 145 61
51 188 28 221 -41 16 -34 30 -37 124 -28 88 8 97 21 60 92 -32 62 -99 127
-160 154 -56 24 -175 33 -246 19z"/>
<path d="M6782 1962 c-84 -2 -113 -6 -110 -15 19 -53 160 -492 211 -657 l64
-205 93 -3 c55 -2 97 1 104 8 5 5 31 81 56 167 75 259 115 383 121 383 7 0 67
-213 119 -419 17 -68 33 -128 36 -133 9 -14 200 -10 212 5 6 7 42 111 80 232
39 121 100 312 136 424 36 113 63 207 61 211 -6 9 -216 3 -225 -7 -4 -4 -19
-48 -33 -98 -14 -49 -33 -117 -43 -150 -34 -122 -64 -251 -64 -277 0 -35 -18
-45 -29 -16 -5 13 -33 111 -61 218 -28 107 -60 225 -71 263 l-20 67 -94 0 -94
0 -40 -127 c-58 -187 -88 -292 -105 -373 -8 -40 -20 -78 -27 -84 -9 -8 -10 -8
-5 1 4 7 2 20 -3 30 -5 10 -19 63 -31 118 -31 142 -108 428 -117 434 -5 4 -59
5 -121 3z"/>
<path d="M8915 1958 c-3 -7 -4 -206 -3 -443 l3 -430 99 -3 c64 -2 103 1 112 9
11 9 14 61 14 272 0 242 1 262 20 292 34 55 93 87 203 110 l27 5 0 102 0 101
-56 -7 c-31 -3 -68 -13 -82 -20 -36 -19 -93 -79 -108 -114 l-11 -27 -8 29 c-4
16 -3 48 2 72 7 29 7 46 -1 54 -15 15 -205 13 -211 -2z"/>
</g>
</svg>
